<?xml version="1.0" encoding="UTF-8" standalone="no"?>
<!-- Generator: Adobe Illustrator 19.0.0, SVG Export Plug-In . SVG Version: 6.00 Build 0)  -->

<svg
   version="1.1"
   id="Layer_1"
   x="0px"
   y="0px"
   viewBox="0 0 2846.7715 2625.4708"
   xml:space="preserve"
   inkscape:version="1.1 (c68e22c387, 2021-05-23)"
   sodipodi:docname="alchemy.svg"
   width="2846.7715"
   height="2625.4707"
   inkscape:export-filename="E:\PROJECT\TOOL\ALCHEMY\LOGO\alchemy.png"
   inkscape:export-xdpi="90"
   inkscape:export-ydpi="90"
   xmlns:inkscape="http://www.inkscape.org/namespaces/inkscape"
   xmlns:sodipodi="http://sodipodi.sourceforge.net/DTD/sodipodi-0.dtd"
   xmlns:xlink="http://www.w3.org/1999/xlink"
   xmlns="http://www.w3.org/2000/svg"
   xmlns:svg="http://www.w3.org/2000/svg"
   xmlns:rdf="http://www.w3.org/1999/02/22-rdf-syntax-ns#"
   xmlns:cc="http://creativecommons.org/ns#"
   xmlns:dc="http://purl.org/dc/elements/1.1/"><metadata
   id="metadata43"><rdf:RDF><cc:Work
       rdf:about=""><dc:format>image/svg+xml</dc:format><dc:type
         rdf:resource="http://purl.org/dc/dcmitype/StillImage" /></cc:Work></rdf:RDF></metadata><defs
   id="defs41"><linearGradient
     inkscape:collect="always"
     id="linearGradient926"><stop
       style="stop-color:#4869ff;stop-opacity:1"
       offset="0"
       id="stop922" /><stop
       style="stop-color:#ff3460;stop-opacity:1"
       offset="1"
       id="stop924" /></linearGradient><linearGradient
     inkscape:collect="always"
     xlink:href="#linearGradient926"
     id="linearGradient928"
     x1="3383.8301"
     y1="-238.44321"
     x2="3383.8301"
     y2="387.45416"
     gradientUnits="userSpaceOnUse"
     gradientTransform="matrix(2.7541305,0,0,2.7541305,-7896.9806,761.7671)" /></defs><sodipodi:namedview
   pagecolor="#ffffff"
   bordercolor="#666666"
   borderopacity="1"
   objecttolerance="10"
   gridtolerance="10"
   guidetolerance="10"
   inkscape:pageopacity="0"
   inkscape:pageshadow="2"
   inkscape:window-width="3840"
   inkscape:window-height="2126"
   id="namedview39"
   showgrid="false"
   inkscape:zoom="0.92187502"
   inkscape:cx="1604.3389"
   inkscape:cy="989.28811"
   inkscape:window-x="-11"
   inkscape:window-y="-11"
   inkscape:window-maximized="1"
   inkscape:current-layer="Layer_1"
   fit-margin-top="100"
   fit-margin-left="100"
   fit-margin-right="100"
   fit-margin-bottom="50"
   inkscape:pagecheckerboard="0" /><g
   id="g9"
   transform="translate(-824.75806,2813.786)" /><g
   id="g11"
   transform="translate(-824.75806,2813.786)" /><g
   id="g13"
   transform="translate(-824.75806,2813.786)" /><g
   id="g15"
   transform="translate(-824.75806,2813.786)" /><g
   id="g17"
   transform="translate(-824.75806,2813.786)" /><g
   id="g19"
   transform="translate(-824.75806,2813.786)" /><g
   id="g21"
   transform="translate(-824.75806,2813.786)" /><g
   id="g23"
   transform="translate(-824.75806,2813.786)" /><g
   id="g25"
   transform="translate(-824.75806,2813.786)" /><g
   id="g27"
   transform="translate(-824.75806,2813.786)" /><g
   id="g29"
   transform="translate(-824.75806,2813.786)" /><g
   id="g31"
   transform="translate(-824.75806,2813.786)" /><g
   id="g33"
   transform="translate(-824.75806,2813.786)" /><g
   id="g35"
   transform="translate(-824.75806,2813.786)" /><g
   id="g37"
   transform="translate(-824.75806,2813.786)" /><text
   xml:space="preserve"
   style="font-style:normal;font-weight:normal;font-size:10.7438px;line-height:0%;font-family:sans-serif;letter-spacing:0px;word-spacing:0px;fill:#ff3460;fill-opacity:1;stroke:none;stroke-width:0.895315px;stroke-linecap:butt;stroke-linejoin:miter;stroke-opacity:1"
   x="67.544823"
   y="2446.769"
   id="text4189"><tspan
     sodipodi:role="line"
     id="tspan4191"
     x="67.544823"
     y="2446.769"
     style="font-style:normal;font-variant:normal;font-weight:normal;font-stretch:normal;font-size:559.572px;line-height:1.25;font-family:Orbitron;-inkscape-font-specification:Orbitron;fill:#ff3460;fill-opacity:1;stroke-width:0.895315px">Alchemy</tspan></text>





<path
   d="m 1200.8521,506.8768 -220.69782,406.5097 -185.81176,1.1017 -186.17927,0.7345 v 71.6074 71.6074 h 145.0507 c 79.68631,0 145.05091,1.4688 145.05091,2.9379 0,1.8359 -93.27323,174.7952 -207.11052,384.8437 l -207.11064,381.5388 469.67091,1.1017 c 258.15399,0.3674 681.18849,0.3674 939.34229,0 l 469.6709,-1.1017 -207.1106,-381.5388 c -113.8373,-210.0485 -207.1105,-383.0078 -207.1105,-384.8437 0,-1.4691 65.3648,-2.9379 145.0509,-2.9379 h 145.051 v -71.6074 -71.6074 l -186.1793,-0.7345 -185.8121,-1.1017 -220.6976,-406.5097 C 1524.3704,282.8743 1424.4876,100 1423.3859,100 c -1.1017,0 -100.9849,182.8743 -222.5338,406.8768 z m 361.3419,153.1297 c 75.2796,138.4411 136.6049,252.2784 136.6049,253.38 0,1.1017 -123.7524,1.8362 -275.413,1.8362 -151.2938,0 -275.4131,-0.7345 -275.4131,-1.8362 0,-4.0392 273.2098,-504.9238 275.4131,-504.9238 1.4687,0 63.8959,113.103 138.8081,251.5438 z m 385.211,709.464 168.9202,311.4005 -346.6533,1.1017 c -190.2188,0.3671 -502.3535,0.3671 -692.5723,0 l -346.65294,-1.1017 168.91986,-311.4005 168.91998,-311.033 h 355.0994 355.0991 z"
   id="path843"
   style="fill:url(#linearGradient928);fill-opacity:1;stroke:none;stroke-width:0.367216" /></svg>
