<?xml version="1.0" encoding="UTF-8" standalone="no"?>
<!-- Generator: Adobe Illustrator 19.0.0, SVG Export Plug-In . SVG Version: 6.00 Build 0)  -->

<svg
   xmlns:dc="http://purl.org/dc/elements/1.1/"
   xmlns:cc="http://creativecommons.org/ns#"
   xmlns:rdf="http://www.w3.org/1999/02/22-rdf-syntax-ns#"
   xmlns:svg="http://www.w3.org/2000/svg"
   xmlns="http://www.w3.org/2000/svg"
   xmlns:sodipodi="http://sodipodi.sourceforge.net/DTD/sodipodi-0.dtd"
   xmlns:inkscape="http://www.inkscape.org/namespaces/inkscape"
   version="1.1"
   id="Layer_1"
   x="0px"
   y="0px"
   viewBox="0 0 2160.7742 1919.779"
   xml:space="preserve"
   inkscape:version="0.92.3 (2405546, 2018-03-11)"
   sodipodi:docname="basify.svg"
   width="2160.7742"
   height="1919.7789"
   inkscape:export-filename="/home/eric/data/WORK/PROJECT/TOOL/BASALT/LOGO/basalt.png"
   inkscape:export-xdpi="90"
   inkscape:export-ydpi="90"><metadata
   id="metadata43"><rdf:RDF><cc:Work
       rdf:about=""><dc:format>image/svg+xml</dc:format><dc:type
         rdf:resource="http://purl.org/dc/dcmitype/StillImage" /><dc:title></dc:title></cc:Work></rdf:RDF></metadata><defs
   id="defs41" /><sodipodi:namedview
   pagecolor="#ffffff"
   bordercolor="#666666"
   borderopacity="1"
   objecttolerance="10"
   gridtolerance="10"
   guidetolerance="10"
   inkscape:pageopacity="0"
   inkscape:pageshadow="2"
   inkscape:window-width="1920"
   inkscape:window-height="1056"
   id="namedview39"
   showgrid="false"
   inkscape:zoom="0.32593204"
   inkscape:cx="1642.5771"
   inkscape:cy="457.5559"
   inkscape:window-x="0"
   inkscape:window-y="0"
   inkscape:window-maximized="1"
   inkscape:current-layer="Layer_1"
   fit-margin-top="100"
   fit-margin-left="100"
   fit-margin-right="100"
   fit-margin-bottom="100" /><g
   id="g9"
   transform="translate(-701.6205,2146.7957)" /><g
   id="g11"
   transform="translate(-701.6205,2146.7957)" /><g
   id="g13"
   transform="translate(-701.6205,2146.7957)" /><g
   id="g15"
   transform="translate(-701.6205,2146.7957)" /><g
   id="g17"
   transform="translate(-701.6205,2146.7957)" /><g
   id="g19"
   transform="translate(-701.6205,2146.7957)" /><g
   id="g21"
   transform="translate(-701.6205,2146.7957)" /><g
   id="g23"
   transform="translate(-701.6205,2146.7957)" /><g
   id="g25"
   transform="translate(-701.6205,2146.7957)" /><g
   id="g27"
   transform="translate(-701.6205,2146.7957)" /><g
   id="g29"
   transform="translate(-701.6205,2146.7957)" /><g
   id="g31"
   transform="translate(-701.6205,2146.7957)" /><g
   id="g33"
   transform="translate(-701.6205,2146.7957)" /><g
   id="g35"
   transform="translate(-701.6205,2146.7957)" /><g
   id="g37"
   transform="translate(-701.6205,2146.7957)" /><text
   xml:space="preserve"
   style="font-style:normal;font-weight:normal;font-size:10.74377537px;line-height:0%;font-family:sans-serif;letter-spacing:0px;word-spacing:0px;fill:#ff3460;fill-opacity:1;stroke:none;stroke-width:0.89531463px;stroke-linecap:butt;stroke-linejoin:miter;stroke-opacity:1"
   x="66.985275"
   y="1819.7789"
   id="text4189"><tspan
     sodipodi:role="line"
     id="tspan4191"
     x="66.985275"
     y="1819.7789"
     style="font-style:normal;font-variant:normal;font-weight:normal;font-stretch:normal;font-size:559.57165527px;line-height:1.25;font-family:Orbitron;-inkscape-font-specification:Orbitron;fill:#ff3460;fill-opacity:1;stroke-width:0.89531463px">Basalt</tspan></text>





<g
   id="g854"
   transform="translate(-39.478283,76.239482)"><path
     id="path835"
     d="m 1092.8068,27.272574 c -31.0585,8.447897 -59.1353,31.55538 -72.5525,60.129149 -4.224,9.1933 -8.4479,18.138137 -9.4418,20.125877 -0.9939,1.98774 -13.91419,6.70862 -28.82224,10.43563 -94.16921,23.60442 -179.64205,71.31019 -250.95224,139.3903 -80.75195,77.02495 -131.93627,167.96407 -160.26157,284.49536 -1.73928,6.70862 -3.97548,10.68411 -6.46016,10.68411 -9.1933,0 -33.04619,14.41111 -47.20884,28.3253 -53.17205,53.42052 -40.25174,141.62651 26.0891,176.41197 9.44176,4.96935 18.88353,8.94483 21.11974,8.94483 2.48468,0 4.72088,3.72701 6.46016,10.43563 18.63506,77.02495 41.49408,130.44547 80.75195,189.58075 77.52188,116.53132 196.04091,200.76182 330.46186,234.55342 14.90805,3.727 27.82834,8.4479 28.82224,10.4356 0.9939,1.9877 5.2178,10.9326 9.4418,20.1259 14.908,31.8038 47.4573,56.1536 83.2366,62.3653 45.718,7.7025 95.66,-18.8835 116.0343,-62.3653 4.224,-9.1933 8.4479,-18.1382 9.4418,-19.8774 0.7454,-1.9878 13.9142,-6.7087 28.8222,-10.4357 41.9911,-10.9325 68.5771,-20.8712 109.3258,-40.9971 92.4299,-45.7181 166.9702,-111.3135 222.8754,-196.04093 37.0216,-56.15366 60.6261,-112.30733 79.0127,-187.34454 1.7392,-6.70862 3.9754,-10.43563 6.4601,-10.43563 8.6964,0 38.761,-18.63507 50.1905,-30.80998 40.9971,-44.97263 39.7548,-111.8104 -2.9816,-154.54682 -14.1627,-13.91419 -38.0156,-28.3253 -47.2089,-28.3253 -2.4847,0 -4.7209,-3.97549 -6.4601,-10.68411 -19.8774,-80.00655 -41.2457,-129.94853 -80.752,-189.33228 -77.7703,-116.77975 -194.0532,-199.51945 -330.4619,-234.80184 -14.908,-3.72702 -28.0768,-8.4479 -28.8222,-10.43564 -0.9939,-1.73927 -5.2178,-10.684107 -9.4418,-19.877407 -22.362,-47.457304 -77.2734,-73.546397 -126.7184,-60.129149 z m 44.4757,76.031076 c 11.9264,8.19943 17.8896,17.39273 19.132,30.06457 2.4847,20.87128 -15.6535,41.49408 -36.5247,41.49408 -21.3683,0 -39.0095,-20.12587 -36.5248,-41.74255 1.9878,-18.88353 19.132,-35.282389 36.5248,-35.282389 5.4662,0 12.6718,2.236209 17.3927,5.466289 z m -111.8104,93.92073 c 43.9787,68.57705 144.3596,68.82552 187.8415,0.74541 l 8.4479,-12.92032 22.362,5.96323 c 124.7307,33.54312 231.3233,114.79201 296.9188,226.10548 22.6105,38.51247 38.0155,75.0372 49.6935,118.51902 l 5.7147,21.61668 -12.1749,7.95096 c -68.3286,43.73029 -68.577,144.11119 -0.4969,187.59301 l 12.9203,8.4479 -6.2117,22.85901 c -12.4234,44.97263 -26.8345,79.01269 -49.445,117.52516 -65.5955,111.31348 -172.1881,192.56238 -296.9188,226.10548 l -22.362,5.9632 -8.4479,-12.9203 c -43.4819,-68.0801 -143.8628,-67.8316 -187.5931,0.4969 l -7.9509,12.175 -22.11363,-5.9633 C 826.69803,1082.5143 694.01636,950.32956 649.04373,782.86242 l -5.96322,-21.61667 12.92031,-8.4479 c 23.35595,-14.90805 40.50021,-38.51247 47.95424,-66.83777 11.92644,-44.4757 -8.4479,-95.16308 -48.45118,-120.75524 l -12.17491,-7.95096 5.71476,-21.61668 c 44.97263,-167.21867 176.1635,-297.9126 346.11531,-344.6245 11.92646,-3.23008 21.86516,-5.96323 21.86516,-5.96323 0.2485,-0.24846 3.9755,5.46629 8.4479,12.17491 z M 613.01593,627.07326 c 11.18104,5.71476 19.87741,19.87741 19.87741,32.30079 0,18.88353 -18.3866,37.27013 -37.27014,37.27013 -18.88353,0 -37.27013,-18.3866 -37.27013,-37.27013 0,-11.92645 8.69636,-26.58603 19.38047,-32.05232 11.92644,-6.46016 23.10748,-6.46016 35.28239,-0.24847 z m 1048.53307,0 c 11.1811,5.71476 19.8774,19.87741 19.8774,32.30079 0,4.22394 -2.2362,12.17491 -4.9693,17.39273 -5.7148,11.18104 -19.8774,19.8774 -32.3008,19.8774 -12.4234,0 -26.586,-8.69636 -32.3008,-19.8774 -6.2117,-12.42338 -6.2117,-22.36208 0,-34.78546 9.1933,-18.13813 30.81,-24.59829 49.6935,-14.90806 z m -524.2665,521.78184 c 33.7916,17.1443 20.6228,70.8133 -17.3927,70.8133 -27.8284,0 -45.4696,-30.0646 -32.5493,-55.4083 9.4418,-18.635 30.81,-25.0952 49.942,-15.405 z"
     inkscape:connector-curvature="0"
     style="fill:#4869ff;fill-opacity:1;stroke:none;stroke-width:0.24846756" /><path
     id="path837"
     d="m 1058.0213,326.42752 c -99.63546,9.69023 -170.20025,39.0094 -192.06539,80.00655 l -5.71476,10.68411 v 242.25587 242.25587 l 5.21782,9.9387 c 20.37434,37.76707 75.53414,63.85616 163.74013,77.27341 41.2456,6.21169 138.8934,6.46016 180.8844,0.24847 87.9575,-13.16878 143.6142,-39.50634 163.9886,-77.52188 l 5.4663,-9.9387 V 659.37405 417.11818 l -5.4663,-9.93871 c -20.6228,-38.264 -75.5342,-64.3531 -162.4978,-77.02494 -31.3069,-4.72088 -121.2522,-6.70862 -153.553,-3.72701 z m 148.3352,78.26728 c 40.5002,6.21169 94.9146,24.10135 94.9146,31.05844 0,3.47855 -24.8468,14.16265 -47.9543,20.87128 -64.3531,18.63506 -166.2248,21.36821 -241.0135,6.21169 -25.34369,-4.96935 -61.61995,-17.39273 -69.81938,-23.35595 -4.96936,-3.72702 -4.96936,-3.72702 0,-7.45403 14.41111,-10.93257 72.05558,-26.08909 117.77358,-31.05845 30.3131,-3.23007 115.7859,-0.99387 146.099,3.72702 z m -200.0164,132.93014 c 93.4238,16.8958 212.6882,10.68411 285.7377,-14.65958 l 14.1626,-4.96936 v 32.05232 32.05232 l -7.454,5.21781 c -27.083,19.13201 -106.8411,34.78546 -178.8966,34.78546 -72.0556,0 -151.81373,-15.65345 -178.89669,-34.78546 l -7.45403,-5.21781 v -32.05232 -31.80385 l 23.10749,7.20556 c 12.42337,3.97548 35.03392,9.44177 49.69353,12.17491 z m 0,149.08054 c 93.4238,16.89579 212.6882,10.6841 285.7377,-14.65959 l 14.1626,-4.96935 v 32.05232 32.05231 l -7.454,5.21782 c -27.083,19.132 -106.8411,34.78546 -178.8966,34.78546 -72.0556,0 -151.81373,-15.65346 -178.89669,-34.78546 l -7.45403,-5.21782 v -32.05231 -31.80385 l 23.10749,7.20556 c 12.42337,3.97548 35.03392,9.44176 49.69353,12.17491 z m 0,149.08053 c 93.4238,16.8958 212.6882,10.68411 285.7377,-14.65958 l 14.1626,-4.96935 v 32.05231 32.05232 l -7.454,5.21782 c -27.083,19.132 -106.8411,34.78545 -178.8966,34.78545 -72.0556,0 -151.81373,-15.65345 -178.89669,-34.78545 l -7.45403,-5.21782 v -32.05232 -31.80385 l 23.10749,7.20556 c 12.42337,3.97548 35.03392,9.44177 49.69353,12.17491 z"
     inkscape:connector-curvature="0"
     style="fill:#ff3460;fill-opacity:1;stroke:none;stroke-width:0.24846756" /></g></svg>