<?xml version="1.0" encoding="UTF-8" standalone="no"?>
<!-- Generator: Adobe Illustrator 19.0.0, SVG Export Plug-In . SVG Version: 6.00 Build 0)  -->

<svg
   version="1.1"
   id="Layer_1"
   x="0px"
   y="0px"
   viewBox="0 0 2311.2622 2516.379"
   xml:space="preserve"
   inkscape:version="1.1 (c68e22c387, 2021-05-23)"
   sodipodi:docname="switch.svg"
   width="2311.2622"
   height="2516.3789"
   inkscape:export-filename="E:\PROJECT\TOOL\SWITCH\LOGO\switch.png"
   inkscape:export-xdpi="90"
   inkscape:export-ydpi="90"
   xmlns:inkscape="http://www.inkscape.org/namespaces/inkscape"
   xmlns:sodipodi="http://sodipodi.sourceforge.net/DTD/sodipodi-0.dtd"
   xmlns="http://www.w3.org/2000/svg"
   xmlns:svg="http://www.w3.org/2000/svg"
   xmlns:rdf="http://www.w3.org/1999/02/22-rdf-syntax-ns#"
   xmlns:cc="http://creativecommons.org/ns#"
   xmlns:dc="http://purl.org/dc/elements/1.1/"><metadata
   id="metadata43"><rdf:RDF><cc:Work
       rdf:about=""><dc:format>image/svg+xml</dc:format><dc:type
         rdf:resource="http://purl.org/dc/dcmitype/StillImage" /></cc:Work></rdf:RDF></metadata><defs
   id="defs41" /><sodipodi:namedview
   pagecolor="#ffffff"
   bordercolor="#666666"
   borderopacity="1"
   objecttolerance="10"
   gridtolerance="10"
   guidetolerance="10"
   inkscape:pageopacity="0"
   inkscape:pageshadow="2"
   inkscape:window-width="3840"
   inkscape:window-height="2126"
   id="namedview39"
   showgrid="false"
   inkscape:zoom="0.32593204"
   inkscape:cx="1524.8578"
   inkscape:cy="1033.9579"
   inkscape:window-x="-11"
   inkscape:window-y="-11"
   inkscape:window-maximized="1"
   inkscape:current-layer="Layer_1"
   fit-margin-top="100"
   fit-margin-left="100"
   fit-margin-right="100"
   fit-margin-bottom="100"
   inkscape:pagecheckerboard="0" /><g
   id="g9"
   transform="translate(-820.84105,2723.3958)" /><g
   id="g11"
   transform="translate(-820.84105,2723.3958)" /><g
   id="g13"
   transform="translate(-820.84105,2723.3958)" /><g
   id="g15"
   transform="translate(-820.84105,2723.3958)" /><g
   id="g17"
   transform="translate(-820.84105,2723.3958)" /><g
   id="g19"
   transform="translate(-820.84105,2723.3958)" /><g
   id="g21"
   transform="translate(-820.84105,2723.3958)" /><g
   id="g23"
   transform="translate(-820.84105,2723.3958)" /><g
   id="g25"
   transform="translate(-820.84105,2723.3958)" /><g
   id="g27"
   transform="translate(-820.84105,2723.3958)" /><g
   id="g29"
   transform="translate(-820.84105,2723.3958)" /><g
   id="g31"
   transform="translate(-820.84105,2723.3958)" /><g
   id="g33"
   transform="translate(-820.84105,2723.3958)" /><g
   id="g35"
   transform="translate(-820.84105,2723.3958)" /><g
   id="g37"
   transform="translate(-820.84105,2723.3958)" /><text
   xml:space="preserve"
   style="font-style:normal;font-weight:normal;font-size:10.7438px;line-height:0%;font-family:sans-serif;letter-spacing:0px;word-spacing:0px;fill:#ff3460;fill-opacity:1;stroke:none;stroke-width:0.895315px;stroke-linecap:butt;stroke-linejoin:miter;stroke-opacity:1"
   x="71.46183"
   y="2416.3789"
   id="text4189"><tspan
     sodipodi:role="line"
     id="tspan4191"
     x="71.46183"
     y="2416.3789"
     style="font-style:normal;font-variant:normal;font-weight:normal;font-stretch:normal;font-size:559.572px;line-height:1.25;font-family:Orbitron;-inkscape-font-specification:Orbitron;fill:#ff3460;fill-opacity:1;stroke-width:0.895315px">Switch</tspan></text>





<g
   id="g4007"
   transform="matrix(0.85094811,0,0,0.85094811,172.24896,80.003799)"><path
     id="path835"
     d="m 1110.9406,29.299329 c -51.297,13.952752 -97.6693,52.117635 -119.82947,99.310771 -6.97647,15.18388 -13.95276,29.95739 -15.59431,33.24039 -1.64155,3.283 -22.98102,11.08012 -47.60352,17.23574 C 772.38114,218.07186 631.21211,296.86388 513.43446,409.30665 380.06257,536.52294 295.5253,686.72021 248.74254,879.18613 c -2.87264,11.08012 -6.566,17.64613 -10.66976,17.64613 -15.18387,0 -54.57989,23.80175 -77.97127,46.78276 -87.820253,88.23068 -66.480754,233.91378 43.0894,291.36628 15.59424,8.2075 31.18849,14.7735 34.88187,14.7735 4.10376,0 7.79712,6.1557 10.66976,17.2358 30.77812,127.2163 68.53264,215.4469 133.37189,313.1162 128.03703,192.4659 323.78595,331.5831 545.79887,387.3941 24.6225,6.1556 45.96197,13.9528 47.60352,17.2357 1.64155,3.2829 8.61784,18.0566 15.59431,33.2404 24.62237,52.528 78.38167,92.7447 137.47557,103.0041 75.509,12.7216 157.9944,-31.1885 191.6451,-103.0041 6.9765,-15.1838 13.9528,-29.9575 15.5943,-32.83 1.2311,-3.2831 22.981,-11.0802 47.6035,-17.2358 69.3535,-18.0564 113.2636,-34.4714 180.5651,-67.7118 152.6595,-75.5092 275.7721,-183.8481 368.1065,-323.786 61.1457,-92.7448 100.1315,-185.4895 130.4993,-309.4228 2.8725,-11.0801 6.5658,-17.2358 10.6696,-17.2358 14.3632,0 64.0186,-30.7781 82.8959,-50.8865 67.7118,-74.2779 65.66,-184.6688 -4.9245,-255.25328 -23.3915,-22.98101 -62.7875,-46.78276 -77.9714,-46.78276 -4.1038,0 -7.7971,-6.56601 -10.6696,-17.64613 -32.83,-132.14077 -68.1224,-214.62617 -133.372,-312.70582 -128.4473,-192.87628 -320.503,-329.53119 -545.7989,-387.80444 -24.6225,-6.15564 -46.3724,-13.95276 -47.6035,-17.23576 -1.6415,-2.87262 -8.6178,-17.64613 -15.5943,-32.83001 C 1283.2982,50.228457 1192.6052,7.1390745 1110.9406,29.299329 Z m 73.4572,125.574781 c 19.6979,13.54238 29.5469,28.72626 31.5988,49.65538 4.1038,34.47151 -25.8537,68.53263 -60.3251,68.53263 -35.2924,0 -64.429,-33.24038 -60.3252,-68.94301 3.2831,-31.1885 31.5989,-58.27326 60.3252,-58.27326 9.0282,0 20.9291,3.69338 28.7263,9.02826 z M 999.72897,309.99588 c 72.63633,113.26353 238.42783,113.67391 310.24363,1.23114 l 13.9527,-21.33952 36.9337,9.84902 c 206.0082,55.40063 382.0592,189.59328 490.3983,373.44132 37.344,63.60814 62.7873,123.93327 82.075,195.74891 l 9.4385,35.70264 -20.1083,13.13199 c -112.8532,72.22602 -113.2635,238.01752 -0.8207,309.83322 l 21.3395,13.9527 -10.2594,37.7545 c -20.5188,74.2779 -44.3206,130.4993 -81.6646,194.1075 -108.3391,183.848 -284.3901,318.0407 -490.3983,373.4413 l -36.9337,9.849 -13.9527,-21.3395 c -71.8158,-112.4428 -237.6073,-112.0324 -309.8334,0.8207 l -13.13187,20.1085 -36.52341,-9.8491 C 671.42887,1772.1623 452.28858,1553.8428 378.01069,1277.25 l -9.849,-35.7027 21.3395,-13.9527 c 38.57526,-24.6225 66.89114,-63.6082 79.20239,-110.3909 19.698,-73.4572 -13.95275,-157.17368 -80.02315,-199.44232 l -20.10838,-13.13199 9.43864,-35.70264 c 74.27789,-276.18244 290.95594,-492.03972 571.65249,-569.19023 19.69803,-5.33488 36.11303,-9.84902 36.11303,-9.84902 0.41043,-0.41036 6.56604,9.02826 13.95276,20.10838 z M 318.5063,1019.9448 c 18.46688,9.4386 32.83001,32.83 32.83001,53.3487 0,31.1885 -30.36775,61.5563 -61.55627,61.5563 -31.1885,0 -61.55626,-30.3678 -61.55626,-61.5563 0,-19.698 14.36312,-43.9101 32.00926,-52.9383 19.698,-10.6698 38.16488,-10.6698 58.27326,-0.4104 z m 1731.7828,0 c 18.467,9.4386 32.83,32.83 32.83,53.3487 0,6.9764 -3.6934,20.1084 -8.2074,28.7263 -9.4387,18.4669 -32.83,32.83 -53.3488,32.83 -20.5188,0 -43.9101,-14.3631 -53.3488,-32.83 -10.2594,-20.5188 -10.2594,-36.9338 0,-57.4525 15.1839,-29.9574 50.8866,-40.6271 82.075,-24.6225 z m -865.8913,861.7876 c 55.811,28.3159 34.0611,116.957 -28.7263,116.957 -45.962,0 -75.0987,-49.6555 -53.7592,-91.5137 15.5943,-30.7781 50.8866,-41.4479 82.4855,-25.4433 z"
     inkscape:connector-curvature="0"
     style="fill:#4869ff;fill-opacity:1;stroke:none;stroke-width:0.410376" /><path
     id="path837"
     d="M 1053.488,523.39094 C 888.92767,539.39556 772.38114,587.81981 736.26814,655.53171 l -9.43864,17.64613 v 400.11566 400.1158 l 8.61788,16.415 c 33.65076,62.377 124.75403,105.4663 270.43722,127.6266 68.1222,10.2594 229.3997,10.6698 298.7531,0.4104 145.2727,-21.7499 237.1967,-65.2497 270.8475,-128.037 l 9.0283,-16.415 V 1073.2935 673.17784 l -9.0283,-16.41501 c -34.0611,-63.19776 -124.7541,-106.28715 -268.3853,-127.21627 -51.7072,-7.79712 -200.2631,-11.08012 -253.6119,-6.15562 z m 244.9941,129.26815 c 66.8911,10.25938 156.7632,39.80637 156.7632,51.29687 0,5.74526 -41.0376,23.39138 -79.2025,34.47152 -106.2871,30.77812 -274.5409,35.29226 -398.06374,10.25938 -41.85826,-8.2075 -101.77301,-28.72626 -115.31539,-38.57526 -8.20752,-6.15564 -8.20752,-6.15564 0,-12.31126 23.80174,-18.0565 119.00875,-43.08937 194.51773,-51.29689 50.0658,-5.33486 191.2348,-1.6415 241.3007,6.15564 z M 968.13009,872.20975 c 154.30101,27.90551 351.28101,17.64614 471.93141,-24.21212 l 23.3912,-8.20752 v 52.9384 52.93839 l -12.3112,8.61786 c -44.7309,31.5989 -176.4613,57.45254 -295.47,57.45254 -119.0087,0 -250.73921,-25.85364 -295.47009,-57.45254 l -12.31126,-8.61786 v -52.93839 -52.52802 l 38.1649,11.90088 c 20.51874,6.566 57.86287,15.59426 82.07504,20.10838 z m 0,246.22505 c 154.30101,27.9055 351.28101,17.6461 471.93141,-24.2121 l 23.3912,-8.2075 v 52.9384 52.9383 l -12.3112,8.6179 c -44.7309,31.5989 -176.4613,57.4525 -295.47,57.4525 -119.0087,0 -250.73921,-25.8536 -295.47009,-57.4525 l -12.31126,-8.6179 v -52.9383 -52.5281 l 38.1649,11.9009 c 20.51874,6.566 57.86287,15.5943 82.07504,20.1084 z m 0,246.225 c 154.30101,27.9056 351.28101,17.6462 471.93141,-24.2121 l 23.3912,-8.2075 v 52.9384 52.9384 l -12.3112,8.6179 c -44.7309,31.5989 -176.4613,57.4525 -295.47,57.4525 -119.0087,0 -250.73921,-25.8536 -295.47009,-57.4525 l -12.31126,-8.6179 v -52.9384 -52.528 l 38.1649,11.9009 c 20.51874,6.566 57.86287,15.5942 82.07504,20.1083 z"
     inkscape:connector-curvature="0"
     style="fill:#ff3460;fill-opacity:1;stroke:none;stroke-width:0.410376" /></g></svg>
